<?xml version="1.0" encoding="utf-8"?>
<!-- Generator: Adobe Illustrator 24.1.1, SVG Export Plug-In . SVG Version: 6.00 Build 0)  -->
<svg version="1.1" id="Layer_1" xmlns="http://www.w3.org/2000/svg" xmlns:xlink="http://www.w3.org/1999/xlink" x="0px" y="0px"
	 viewBox="0 0 512 512" style="enable-background:new 0 0 512 512;" xml:space="preserve">
<g id="XMLID_1_">
	<path id="XMLID_6_" d="M0,402.2h310.9v36.3H0V402.2z M420.8,402.2H512v36.3h-91.2V402.2z M402.2,474.8c0,20.5-16.8,37.2-36.3,37.2
		c-19.5,0-36.3-16.8-36.3-37.2V365.8c0-20.5,16.8-37.2,36.3-37.2c19.5,0,36.3,16.8,36.3,37.2V474.8z"/>
	<path id="XMLID_10_" d="M0,237.4h91.2v37.2H0V237.4z M201.1,237.4H512v37.2H201.1V237.4z M182.5,310c0,20.5-16.8,37.2-36.3,37.2
		c-20.5,0-36.3-16.8-36.3-37.2V202c0-20.5,16.8-37.2,36.3-37.2c20.5,0,36.3,16.8,36.3,37.2V310z"/>
	<path id="XMLID_14_" d="M0,73.5h310.9v36.3H0V73.5z M420.8,73.5H512v36.3h-91.2V73.5z M402.2,146.2c0,20.5-16.8,37.2-36.3,37.2
		c-19.5,0-36.3-16.8-36.3-37.2V37.2c0-20.5,16.8-37.2,36.3-37.2c19.5,0,36.3,16.8,36.3,37.2V146.2z"/>
</g>
</svg>
